<?xml version="1.0" encoding="utf-8"?>
<!-- Generator: Adobe Illustrator 16.0.0, SVG Export Plug-In . SVG Version: 6.00 Build 0)  -->
<!DOCTYPE svg PUBLIC "-//W3C//DTD SVG 1.1//EN" "http://www.w3.org/Graphics/SVG/1.1/DTD/svg11.dtd">
<svg version="1.1" id="Layer_1" xmlns:sketch="http://www.bohemiancoding.com/sketch/ns"
	 xmlns="http://www.w3.org/2000/svg" xmlns:xlink="http://www.w3.org/1999/xlink" x="0px" y="0px" width="10px" height="10px"
	 viewBox="0 0 10 10" enable-background="new 0 0 10 10" xml:space="preserve">
<circle fill="#D32F2F" cx="5" cy="5.001" r="4.5"/>
<path fill="#FFFFFF" d="M5,1c2.206,0,4,1.795,4,4.001c0,2.204-1.794,3.998-4,3.998c-2.206,0-4-1.794-4-3.998C1,2.795,2.794,1,5,1
	 M5,0C2.239,0,0,2.239,0,5.001c0,2.76,2.239,4.998,5,4.998c2.761,0,5-2.238,5-4.998C10,2.239,7.762,0,5,0L5,0z"/>
</svg>
