<svg xmlns="http://www.w3.org/2000/svg" width="30" height="30" viewBox="0 0 30 30"><path fill="#FFF" d="M15 0c8.284 0 15 6.716 15 15 0 8.284-6.716 15-15 15-8.284 0-15-6.716-15-15C0 6.716 6.716 0 15 0z"/><path fill="#D32F2F" d="M15 1c7.73 0 14 6.27 14 14s-6.27 14-14 14S1 22.73 1 15 7.27 1 15 1z"/><path fill="#FFF" d="M7.5 12.5v5h3.333L15 21.666V8.333L10.833 12.5H7.5zM18.75 15c0-1.475-.85-2.742-2.084-3.358v6.708c1.234-.608 2.084-1.875 2.084-3.35zm-2.084-7.31v1.72c2.41.717 4.168 2.95 4.168 5.592s-1.76 4.875-4.168 5.592v1.717C20.008 21.55 22.5 18.57 22.5 15s-2.492-6.55-5.834-7.31z"/></svg>