<svg width="0" height="0" style="position:absolute"><symbol viewBox="0 0 18 22" id="app-store"><path d="M15.034 11.7c-.025-2.778 2.288-4.132 2.394-4.194-1.31-1.9-3.34-2.16-4.055-2.18-1.706-.178-3.358 1.016-4.23 1.016-.887 0-2.225-.998-3.666-.97C3.622 5.4 1.885 6.47.933 8.13c-1.965 3.384-.5 8.354 1.383 11.09.942 1.34 2.042 2.835 3.482 2.78 1.41-.06 1.936-.89 3.638-.89 1.685 0 2.177.89 3.647.855 1.514-.022 2.466-1.346 3.374-2.694 1.088-1.538 1.525-3.048 1.543-3.126-.035-.01-2.938-1.112-2.966-4.443zM12.26 3.525C13.016 2.583 13.534 1.3 13.39 0c-1.098.048-2.47.753-3.26 1.677C9.434 2.49 8.81 3.82 8.97 5.073c1.232.09 2.498-.62 3.29-1.548z"/></symbol><symbol viewBox="0 0 16 16" id="avatar"><path fill="#FFF" d="M8 0c4.42 0 8 3.58 8 8 0 4.418-3.58 8-8 8-4.418 0-8-3.582-8-8 0-4.42 3.582-8 8-8z"/><path fill="#193341" d="M8 12c-1.54 0-4.254.653-5.43 1.864C4 15.186 5.903 16 8 16s4.002-.814 5.43-2.136C12.254 12.654 9.54 12 8 12z"/><circle fill="#193341" cx="8" cy="8" r="2.7"/></symbol><symbol viewBox="0 0 22 22" id="location"><path d="M11 7c-2.21 0-4 1.79-4 4s1.79 4 4 4 4-1.79 4-4-1.79-4-4-4zm8.94 3c-.46-4.17-3.77-7.48-7.94-7.94V0h-2v2.06C5.83 2.52 2.52 5.83 2.06 10H0v2h2.06c.46 4.17 3.77 7.48 7.94 7.94V22h2v-2.06c4.17-.46 7.48-3.77 7.94-7.94H22v-2h-2.06zM11 18c-3.87 0-7-3.13-7-7s3.13-7 7-7 7 3.13 7 7-3.13 7-7 7z"/></symbol><symbol viewBox="0 0 29 39" id="mic"><title>Mic</title><path d="M14.5 24.63c3.44 0 6.193-2.75 6.193-6.157l.02-12.315C20.714 2.75 17.94 0 14.5 0c-3.438 0-6.214 2.75-6.214 6.158v12.315c0 3.406 2.776 6.158 6.214 6.158zm10.977-6.156c0 6.158-5.26 10.468-10.977 10.468-5.717 0-10.98-4.31-10.98-10.468H0c0 7 5.634 12.787 12.428 13.793V39h4.144v-6.733C23.365 31.282 29 25.494 29 18.474h-3.523z"/></symbol><symbol viewBox="0 0 20 24" id="pause"><path d="M13 21.995c0 1.108.887 2.005 2.006 2.005h2.988C19.102 24 20 23.104 20 21.995V2.005C20 .897 19.113 0 17.994 0h-2.988C13.898 0 13 .896 13 2.005v19.99zM0 21.995C0 23.103.887 24 2.006 24h2.988C6.102 24 7 23.104 7 21.995V2.005C7 .897 6.113 0 4.994 0H2.006C.898 0 0 .896 0 2.005v19.99z"/></symbol><symbol viewBox="0 0 18 25" id="play"><path d="M3.266.622C1.462-.666 0 .112 0 2.348V22.65c0 2.242 1.464 3.014 3.266 1.728L16.65 14.83c1.803-1.287 1.8-3.375 0-4.66L3.265.622z"/></symbol><symbol viewBox="0 0 18 18" id="play-store"><path d="M4.43 1.62l6.056 5.997 1.76-1.743M14.047 6.855l-2.162 2.143 2.18 2.16 3.856-2.1c.03-.016.06-.03.08-.048-.02-.015-.05-.03-.08-.048l-3.873-2.107zM9.09 9L0 0l.003 18M4.38 16.434l7.88-4.293-1.774-1.755"/></symbol><symbol viewBox="0 0 82 37" id="pulse"><path d="M49.668 37c-.285 0-.95-.116-1.214-1.15L40.41 4.41 35.5 22.715c-.263.98-1.225 1.72-2.238 1.72H0v-2.01h33.263c.1 0 .27-.134.296-.23L39.2 1.152c.28-1.044.97-1.164 1.235-1.15.277 0 .95.116 1.218 1.153L49.63 32.34l1.915-8.154c.238-1.007 1.196-1.8 2.222-1.757L82 22.553l-.01 2.01-28.232-.125c-.09 0-.235.118-.256.207L50.886 35.81c-.252 1.066-.93 1.188-1.21 1.19h-.008z"/></symbol><symbol viewBox="0 0 40 13" id="schnauze"><path d="M39.886 5c-.988 2.955-3.53 7.678-9.766 7.982-4.958.24-8.372-1.956-10.118-4.378-1.745 2.422-5.16 4.624-10.118 4.378C3.656 12.678 1.107 7.954.12 5c-.08-.247-.434-1.48.647-.813.116.09.237.174.37.26.64.402 1.508.726 2.675.783C7.182 5.393 10.14-.223 14.86.007c1.213.062 2.877.336 5.137 2.516C22.257.343 23.92.063 25.134.007c4.72-.23 7.68 5.386 11.048 5.223 1.168-.057 2.034-.38 2.676-.784.133-.084.254-.174.37-.26 1.085-.666.733.567.658.814z"/></symbol></svg>