<svg width="0" height="0" style="position:absolute"><symbol viewBox="0 0 18 22" id="app-store"><path d="M15.034 11.7c-.025-2.778 2.288-4.132 2.394-4.194-1.31-1.9-3.34-2.16-4.055-2.18-1.706-.178-3.358 1.016-4.23 1.016-.887 0-2.225-.998-3.666-.97C3.622 5.4 1.885 6.47.933 8.13c-1.965 3.384-.5 8.354 1.383 11.09.942 1.34 2.042 2.835 3.482 2.78 1.41-.06 1.936-.89 3.638-.89 1.685 0 2.177.89 3.647.855 1.514-.022 2.466-1.346 3.374-2.694 1.088-1.538 1.525-3.048 1.543-3.126-.035-.01-2.938-1.112-2.966-4.443zM12.26 3.525C13.016 2.583 13.534 1.3 13.39 0c-1.098.048-2.47.753-3.26 1.677C9.434 2.49 8.81 3.82 8.97 5.073c1.232.09 2.498-.62 3.29-1.548z"/></symbol><symbol viewBox="0 0 22 22" id="location"><title>Location Icon</title><g transform="translate(-1 -1)" fill="none" fill-rule="evenodd"><path d="M0 0h24v24H0V0z"/><path d="M12 8c-2.21 0-4 1.79-4 4s1.79 4 4 4 4-1.79 4-4-1.79-4-4-4zm8.94 3c-.46-4.17-3.77-7.48-7.94-7.94V1h-2v2.06C6.83 3.52 3.52 6.83 3.06 11H1v2h2.06c.46 4.17 3.77 7.48 7.94 7.94V23h2v-2.06c4.17-.46 7.48-3.77 7.94-7.94H23v-2h-2.06zM12 19c-3.87 0-7-3.13-7-7s3.13-7 7-7 7 3.13 7 7-3.13 7-7 7z" fill="#FFF"/></g></symbol><symbol viewBox="0 0 29 39" id="mic"><title>Mic</title><path fill="#FFF" d="M14.5 24.63c3.44 0 6.193-2.75 6.193-6.157l.02-12.315C20.714 2.75 17.94 0 14.5 0c-3.438 0-6.214 2.75-6.214 6.158v12.315c0 3.406 2.776 6.158 6.214 6.158zm10.977-6.156c0 6.158-5.26 10.468-10.977 10.468-5.717 0-10.98-4.31-10.98-10.468H0c0 7 5.634 12.787 12.428 13.793V39h4.144v-6.733C23.365 31.282 29 25.494 29 18.474h-3.523z"/></symbol><symbol viewBox="0 0 18 18" id="play-store"><path d="M4.43 1.62l6.056 5.997 1.76-1.743M14.047 6.855l-2.162 2.143 2.18 2.16 3.856-2.1c.03-.016.06-.03.08-.048-.02-.015-.05-.03-.08-.048l-3.873-2.107zM9.09 9L0 0l.003 18M4.38 16.434l7.88-4.293-1.774-1.755"/></symbol></svg>