<svg xmlns="http://www.w3.org/2000/svg" width="90" height="90" viewBox="5 5 90 90"><path fill="#CA2D2D" d="M36.378 5h27.244c9.035 0 13.552 0 18.416 1.537 5.31 1.933 9.49 6.115 11.424 11.425C95 22.825 95 27.342 95 36.377V63.62c0 9.038 0 13.554-1.538 18.417-1.933 5.31-6.114 9.492-11.424 11.424C77.174 95 72.658 95 63.622 95H36.378c-9.036 0-13.553 0-18.416-1.54-5.31-1.93-9.492-6.112-11.425-11.423C5 77.174 5 72.657 5 63.62V36.378c0-9.035 0-13.553 1.538-18.416 1.933-5.31 6.115-9.49 11.425-11.424C22.825 5 27.343 5 36.378 5"/><path fill="#FFF" d="M79.828 47.68c-1.482 4.568-5.296 11.875-14.646 12.343-7.438.37-12.56-3.024-15.18-6.77-2.616 3.744-7.74 7.15-15.175 6.77-9.343-.47-13.166-7.774-14.648-12.343-.122-.38-.65-2.288.97-1.256.173.138.355.268.555.398.962.624 2.262 1.127 4.013 1.214 5.053.25 9.49-8.434 16.572-8.078 1.82.095 4.317.52 7.706 3.89 3.39-3.37 5.885-3.804 7.705-3.89 7.082-.355 11.52 8.33 16.573 8.078 1.75-.087 3.05-.59 4.013-1.214.2-.13.382-.268.555-.398 1.63-1.032 1.1.875.988 1.256z"/></svg>