<?xml version="1.0" encoding="utf-8"?>
<!-- Generator: Adobe Illustrator 16.0.0, SVG Export Plug-In . SVG Version: 6.00 Build 0)  -->
<!DOCTYPE svg PUBLIC "-//W3C//DTD SVG 1.1//EN" "http://www.w3.org/Graphics/SVG/1.1/DTD/svg11.dtd">
<svg version="1.1" id="Layer_1" xmlns="http://www.w3.org/2000/svg" xmlns:xlink="http://www.w3.org/1999/xlink" x="0px" y="0px"
	 width="18px" height="22px" viewBox="0 0 18 22" enable-background="new 0 0 18 22" xml:space="preserve">
	<path d="M15.034,11.701c-0.025-2.779,2.288-4.133,2.394-4.195c-1.31-1.9-3.341-2.16-4.055-2.18
		c-1.706-0.178-3.358,1.016-4.229,1.016c-0.888,0-2.226-0.998-3.667-0.969C3.622,5.4,1.885,6.468,0.933,8.128
		c-1.965,3.384-0.499,8.354,1.383,11.09c0.942,1.341,2.042,2.835,3.482,2.781c1.409-0.06,1.936-0.892,3.638-0.892
		c1.685,0,2.177,0.892,3.647,0.856c1.514-0.022,2.466-1.346,3.374-2.694c1.088-1.537,1.525-3.047,1.543-3.125
		C17.965,16.134,15.062,15.032,15.034,11.701z"/>
	<path d="M12.259,3.525C13.017,2.583,13.535,1.301,13.392,0c-1.098,0.048-2.47,0.753-3.26,1.677C9.434,2.489,8.809,3.82,8.97,5.073
		C10.202,5.164,11.468,4.454,12.259,3.525z"/>
</svg>
