<?xml version="1.0" encoding="utf-8"?>
<!-- Generator: Adobe Illustrator 16.0.0, SVG Export Plug-In . SVG Version: 6.00 Build 0)  -->
<!DOCTYPE svg PUBLIC "-//W3C//DTD SVG 1.1//EN" "http://www.w3.org/Graphics/SVG/1.1/DTD/svg11.dtd">
<svg version="1.1" id="Layer_1" xmlns:sketch="http://www.bohemiancoding.com/sketch/ns"
	 xmlns="http://www.w3.org/2000/svg" xmlns:xlink="http://www.w3.org/1999/xlink" x="0px" y="0px" width="16px" height="16px"
	 viewBox="0 0 16 16" enable-background="new 0 0 16 16" xml:space="preserve">

	<path id="path-1_2_" fill="#FFFFFF" d="M8.001,0L8.001,0c4.418,0,8,3.581,8,8l0,0c0,4.418-3.582,8-8,8l0,0c-4.419,0-8-3.582-8-8
		l0,0C0,3.581,3.582,0,8.001,0z"/>

		<path fill="#193341" d="M8,12c-1.539,0-4.254,0.653-5.429,1.864C3.998,15.186,5.902,16,8,16c2.098,0,4.002-0.814,5.429-2.136
			C12.255,12.653,9.539,12,8,12z"/>
		<circle fill="#193341" cx="8" cy="8" r="2.7"/>
</svg>
