<?xml version="1.0" encoding="utf-8"?>
<!-- Generator: Adobe Illustrator 16.0.0, SVG Export Plug-In . SVG Version: 6.00 Build 0)  -->
<!DOCTYPE svg PUBLIC "-//W3C//DTD SVG 1.1//EN" "http://www.w3.org/Graphics/SVG/1.1/DTD/svg11.dtd">
<svg version="1.1" id="Layer_1" xmlns:sketch="http://www.bohemiancoding.com/sketch/ns"
	 xmlns="http://www.w3.org/2000/svg" xmlns:xlink="http://www.w3.org/1999/xlink" x="0px" y="0px" width="29.167px"
	 height="40.333px" viewBox="0 0 29.167 40.333" enable-background="new 0 0 29.167 40.333" xml:space="preserve">
<title>Mic</title>
<g>
	<path id="Shape" fill="#FFFFFF" d="M14.583,25.375c3.459,0,6.229-2.791,6.229-6.25l0.021-12.5c0-3.458-2.791-6.25-6.25-6.25
		c-3.457,0-6.25,2.792-6.25,6.25v12.5C8.333,22.583,11.126,25.375,14.583,25.375L14.583,25.375z M25.625,19.125
		c0,6.25-5.291,10.625-11.041,10.625S3.542,25.375,3.542,19.125H0c0,7.104,5.667,12.979,12.5,14v6.834h4.168v-6.834
		c6.832-1,12.5-6.875,12.5-14H25.625L25.625,19.125z"/>
</g>
</svg>
