<?xml version="1.0" encoding="utf-8"?>
<!-- Generator: Adobe Illustrator 16.0.0, SVG Export Plug-In . SVG Version: 6.00 Build 0)  -->
<!DOCTYPE svg PUBLIC "-//W3C//DTD SVG 1.1//EN" "http://www.w3.org/Graphics/SVG/1.1/DTD/svg11.dtd">
<svg version="1.1" id="Layer_1" xmlns:sketch="http://www.bohemiancoding.com/sketch/ns"
	 xmlns="http://www.w3.org/2000/svg" xmlns:xlink="http://www.w3.org/1999/xlink" x="0px" y="0px" width="29px" height="39px"
	 viewBox="0 0 29 39" enable-background="new 0 0 29 39" xml:space="preserve">
<title>Mic</title>
<g>
	<path id="Shape" d="M14.5,24.631c3.439,0,6.193-2.75,6.193-6.158l0.021-12.315C20.714,2.75,17.939,0,14.5,0
		c-3.438,0-6.214,2.75-6.214,6.158v12.315C8.285,21.879,11.062,24.631,14.5,24.631L14.5,24.631z M25.477,18.474
		c0,6.158-5.261,10.468-10.977,10.468c-5.717,0-10.979-4.311-10.979-10.468H0c0,6.999,5.634,12.787,12.428,13.793V39h4.144v-6.733
		C23.365,31.282,29,25.494,29,18.474H25.477L25.477,18.474z"/>
</g>
</svg>
