<?xml version="1.0" encoding="utf-8"?>
<!-- Generator: Adobe Illustrator 16.0.0, SVG Export Plug-In . SVG Version: 6.00 Build 0)  -->
<!DOCTYPE svg PUBLIC "-//W3C//DTD SVG 1.1//EN" "http://www.w3.org/Graphics/SVG/1.1/DTD/svg11.dtd">
<svg version="1.1" id="Layer_1" xmlns:sketch="http://www.bohemiancoding.com/sketch/ns"
	 xmlns="http://www.w3.org/2000/svg" xmlns:xlink="http://www.w3.org/1999/xlink" x="0px" y="0px" width="82px" height="37px"
	 viewBox="0 0 82 37" enable-background="new 0 0 82 37" xml:space="preserve">
<path d="M49.668,37c-0.285,0-0.95-0.116-1.214-1.151L40.41,4.409L35.5,22.716c-0.263,0.98-1.225,1.72-2.238,1.72H0
	v-2.011h33.263c0.099,0,0.271-0.133,0.296-0.229L39.2,1.152c0.28-1.044,0.969-1.164,1.235-1.151
	c0.277,0.001,0.951,0.117,1.218,1.154l7.978,31.184l1.914-8.153c0.238-1.007,1.196-1.799,2.222-1.757L82,22.554l-0.01,2.011
	l-28.232-0.126l0,0c-0.089,0-0.235,0.119-0.256,0.208l-2.616,11.162c-0.252,1.067-0.93,1.189-1.209,1.191
	C49.674,37,49.671,37,49.668,37z"/>
</svg>
