<?xml version="1.0" encoding="utf-8"?>
<!-- Generator: Adobe Illustrator 16.0.0, SVG Export Plug-In . SVG Version: 6.00 Build 0)  -->
<!DOCTYPE svg PUBLIC "-//W3C//DTD SVG 1.1//EN" "http://www.w3.org/Graphics/SVG/1.1/DTD/svg11.dtd">
<svg version="1.1" id="Layer_1" xmlns:sketch="http://www.bohemiancoding.com/sketch/ns"
	 xmlns="http://www.w3.org/2000/svg" xmlns:xlink="http://www.w3.org/1999/xlink" x="0px" y="0px" width="40px" height="13px"
	 viewBox="0 0 40 13" enable-background="new 0 0 40 13" xml:space="preserve">
<path d="M39.886,5c-0.988,2.955-3.53,7.678-9.766,7.982c-4.958,0.241-8.372-1.956-10.118-4.378
	c-1.745,2.422-5.16,4.624-10.118,4.378C3.656,12.678,1.107,7.954,0.12,5C0.039,4.753-0.314,3.52,0.767,4.187
	c0.116,0.09,0.237,0.174,0.37,0.259l0,0l0,0C1.778,4.849,2.645,5.173,3.812,5.23c3.369,0.163,6.327-5.453,11.048-5.223
	c1.213,0.062,2.877,0.336,5.137,2.516c2.259-2.18,3.923-2.46,5.137-2.516c4.721-0.23,7.679,5.386,11.048,5.223
	c1.168-0.057,2.034-0.381,2.676-0.784l0,0l0,0c0.133-0.084,0.254-0.174,0.369-0.259C40.313,3.52,39.961,4.753,39.886,5L39.886,5z"/>
</svg>
